<mxfile host="app.diagrams.net" agent="Mozilla/5.0 (X11; Linux x86_64) AppleWebKit/537.36 (KHTML, like Gecko) Chrome/133.0.0.0 Safari/537.36" version="26.0.16">
  <diagram name="Page-1" id="xlKg84emceo_c7BC1Dbc">
    <mxGraphModel dx="2191" dy="1962" grid="1" gridSize="10" guides="1" tooltips="1" connect="1" arrows="1" fold="1" page="1" pageScale="1" pageWidth="827" pageHeight="1169" math="0" shadow="0">
      <root>
        <mxCell id="0" />
        <mxCell id="1" parent="0" />
        <mxCell id="T8hmmxzdGINafm_tk2lO-1" value="Personne" style="ellipse;whiteSpace=wrap;html=1;" parent="1" vertex="1">
          <mxGeometry x="453" y="-40" width="114" height="70" as="geometry" />
        </mxCell>
        <mxCell id="T8hmmxzdGINafm_tk2lO-2" value="Compositeur" style="ellipse;whiteSpace=wrap;html=1;" parent="1" vertex="1">
          <mxGeometry x="340" y="150" width="100" height="60" as="geometry" />
        </mxCell>
        <mxCell id="T8hmmxzdGINafm_tk2lO-3" value="Fils" style="ellipse;whiteSpace=wrap;html=1;" parent="1" vertex="1">
          <mxGeometry x="453" y="160" width="110" height="70" as="geometry" />
        </mxCell>
        <mxCell id="T8hmmxzdGINafm_tk2lO-4" value="est une" style="endArrow=classic;html=1;rounded=0;fillColor=#f8cecc;strokeColor=#b85450;exitX=0.73;exitY=0.05;exitDx=0;exitDy=0;exitPerimeter=0;entryX=0.026;entryY=0.643;entryDx=0;entryDy=0;entryPerimeter=0;" parent="1" source="T8hmmxzdGINafm_tk2lO-2" target="T8hmmxzdGINafm_tk2lO-1" edge="1">
          <mxGeometry width="50" height="50" relative="1" as="geometry">
            <mxPoint x="320" y="210" as="sourcePoint" />
            <mxPoint x="370" y="160" as="targetPoint" />
            <Array as="points" />
          </mxGeometry>
        </mxCell>
        <mxCell id="T8hmmxzdGINafm_tk2lO-5" value="est une" style="endArrow=classic;html=1;rounded=0;fillColor=#f8cecc;strokeColor=#b85450;" parent="1" source="T8hmmxzdGINafm_tk2lO-3" target="T8hmmxzdGINafm_tk2lO-1" edge="1">
          <mxGeometry width="50" height="50" relative="1" as="geometry">
            <mxPoint x="470" y="210" as="sourcePoint" />
            <mxPoint x="520" y="160" as="targetPoint" />
          </mxGeometry>
        </mxCell>
        <mxCell id="T8hmmxzdGINafm_tk2lO-6" value="Wolfgang Amadeus Mozart" style="whiteSpace=wrap;html=1;aspect=fixed;" parent="1" vertex="1">
          <mxGeometry x="400" y="545" width="80" height="80" as="geometry" />
        </mxCell>
        <mxCell id="T8hmmxzdGINafm_tk2lO-7" value="est un" style="endArrow=classic;html=1;rounded=0;exitX=0.5;exitY=0;exitDx=0;exitDy=0;fillColor=#f8cecc;strokeColor=#b85450;entryX=0.35;entryY=1.05;entryDx=0;entryDy=0;entryPerimeter=0;" parent="1" source="T8hmmxzdGINafm_tk2lO-6" target="T8hmmxzdGINafm_tk2lO-2" edge="1">
          <mxGeometry width="50" height="50" relative="1" as="geometry">
            <mxPoint x="225" y="320" as="sourcePoint" />
            <mxPoint x="280" y="270" as="targetPoint" />
          </mxGeometry>
        </mxCell>
        <mxCell id="T8hmmxzdGINafm_tk2lO-8" value="Léopold Mozart" style="whiteSpace=wrap;html=1;aspect=fixed;" parent="1" vertex="1">
          <mxGeometry x="520" y="420" width="80" height="80" as="geometry" />
        </mxCell>
        <mxCell id="T8hmmxzdGINafm_tk2lO-9" value="fils de " style="endArrow=classic;html=1;rounded=0;entryX=0.038;entryY=0.375;entryDx=0;entryDy=0;entryPerimeter=0;exitX=1.013;exitY=0.388;exitDx=0;exitDy=0;exitPerimeter=0;fillColor=#d5e8d4;strokeColor=#82b366;" parent="1" source="T8hmmxzdGINafm_tk2lO-6" target="T8hmmxzdGINafm_tk2lO-8" edge="1">
          <mxGeometry width="50" height="50" relative="1" as="geometry">
            <mxPoint x="390" y="350" as="sourcePoint" />
            <mxPoint x="440" y="300" as="targetPoint" />
          </mxGeometry>
        </mxCell>
        <mxCell id="T8hmmxzdGINafm_tk2lO-10" value="est un " style="endArrow=classic;html=1;rounded=0;exitX=0.75;exitY=0;exitDx=0;exitDy=0;fillColor=#f8cecc;strokeColor=#b85450;" parent="1" source="T8hmmxzdGINafm_tk2lO-6" target="T8hmmxzdGINafm_tk2lO-3" edge="1">
          <mxGeometry width="50" height="50" relative="1" as="geometry">
            <mxPoint x="320" y="330" as="sourcePoint" />
            <mxPoint x="370" y="280" as="targetPoint" />
          </mxGeometry>
        </mxCell>
        <mxCell id="T8hmmxzdGINafm_tk2lO-11" value="Constance Weber" style="whiteSpace=wrap;html=1;aspect=fixed;" parent="1" vertex="1">
          <mxGeometry x="640" y="350" width="80" height="80" as="geometry" />
        </mxCell>
        <mxCell id="T8hmmxzdGINafm_tk2lO-12" value="est une" style="endArrow=classic;html=1;rounded=0;entryX=0.965;entryY=0.771;entryDx=0;entryDy=0;entryPerimeter=0;exitX=0.5;exitY=0;exitDx=0;exitDy=0;fillColor=#f8cecc;strokeColor=#b85450;" parent="1" source="T8hmmxzdGINafm_tk2lO-11" target="T8hmmxzdGINafm_tk2lO-1" edge="1">
          <mxGeometry width="50" height="50" relative="1" as="geometry">
            <mxPoint x="630" y="260" as="sourcePoint" />
            <mxPoint x="680" y="210" as="targetPoint" />
          </mxGeometry>
        </mxCell>
        <mxCell id="T8hmmxzdGINafm_tk2lO-13" value="est marié avec" style="endArrow=classic;html=1;rounded=0;exitX=1;exitY=0.5;exitDx=0;exitDy=0;entryX=0;entryY=0.5;entryDx=0;entryDy=0;fillColor=#d5e8d4;strokeColor=#82b366;" parent="1" source="T8hmmxzdGINafm_tk2lO-8" target="T8hmmxzdGINafm_tk2lO-11" edge="1">
          <mxGeometry width="50" height="50" relative="1" as="geometry">
            <mxPoint x="490" y="380" as="sourcePoint" />
            <mxPoint x="540" y="330" as="targetPoint" />
          </mxGeometry>
        </mxCell>
        <mxCell id="T8hmmxzdGINafm_tk2lO-14" value="" style="endArrow=none;html=1;rounded=0;strokeWidth=2;" parent="1" edge="1">
          <mxGeometry width="50" height="50" relative="1" as="geometry">
            <mxPoint x="-340" y="320" as="sourcePoint" />
            <mxPoint x="990" y="320" as="targetPoint" />
          </mxGeometry>
        </mxCell>
        <mxCell id="T8hmmxzdGINafm_tk2lO-15" value="Lieu" style="ellipse;whiteSpace=wrap;html=1;" parent="1" vertex="1">
          <mxGeometry x="740" y="-20" width="110" height="70" as="geometry" />
        </mxCell>
        <mxCell id="T8hmmxzdGINafm_tk2lO-16" value="Oeuvre" style="ellipse;whiteSpace=wrap;html=1;" parent="1" vertex="1">
          <mxGeometry x="70" y="-60" width="110" height="70" as="geometry" />
        </mxCell>
        <mxCell id="T8hmmxzdGINafm_tk2lO-17" value="La flute enchantée" style="whiteSpace=wrap;html=1;aspect=fixed;" parent="1" vertex="1">
          <mxGeometry x="100" y="330" width="80" height="80" as="geometry" />
        </mxCell>
        <mxCell id="T8hmmxzdGINafm_tk2lO-18" value="Jupiter" style="whiteSpace=wrap;html=1;aspect=fixed;fillColor=#fff2cc;strokeColor=#d6b656;" parent="1" vertex="1">
          <mxGeometry x="-130" y="450" width="80" height="80" as="geometry" />
        </mxCell>
        <mxCell id="T8hmmxzdGINafm_tk2lO-19" value="est une" style="endArrow=classic;html=1;rounded=0;entryX=0.657;entryY=1.017;entryDx=0;entryDy=0;entryPerimeter=0;exitX=0.413;exitY=-0.025;exitDx=0;exitDy=0;exitPerimeter=0;fillColor=#f8cecc;strokeColor=#b85450;" parent="1" source="T8hmmxzdGINafm_tk2lO-17" target="T8hmmxzdGINafm_tk2lO-40" edge="1">
          <mxGeometry width="50" height="50" relative="1" as="geometry">
            <mxPoint x="110" y="250" as="sourcePoint" />
            <mxPoint x="160" y="200" as="targetPoint" />
          </mxGeometry>
        </mxCell>
        <mxCell id="T8hmmxzdGINafm_tk2lO-20" value="est une" style="endArrow=classic;html=1;rounded=0;entryX=0.373;entryY=1.029;entryDx=0;entryDy=0;exitX=0.5;exitY=0;exitDx=0;exitDy=0;fillColor=#f8cecc;strokeColor=#b85450;entryPerimeter=0;" parent="1" source="T8hmmxzdGINafm_tk2lO-18" target="T8hmmxzdGINafm_tk2lO-39" edge="1">
          <mxGeometry width="50" height="50" relative="1" as="geometry">
            <mxPoint x="190" y="260" as="sourcePoint" />
            <mxPoint x="240" y="210" as="targetPoint" />
          </mxGeometry>
        </mxCell>
        <mxCell id="T8hmmxzdGINafm_tk2lO-21" value="Salzbourg" style="whiteSpace=wrap;html=1;aspect=fixed;" parent="1" vertex="1">
          <mxGeometry x="790" y="470" width="80" height="80" as="geometry" />
        </mxCell>
        <mxCell id="T8hmmxzdGINafm_tk2lO-22" value="Vienne" style="whiteSpace=wrap;html=1;aspect=fixed;" parent="1" vertex="1">
          <mxGeometry x="675" y="550" width="80" height="80" as="geometry" />
        </mxCell>
        <mxCell id="T8hmmxzdGINafm_tk2lO-23" value="Date" style="ellipse;whiteSpace=wrap;html=1;" parent="1" vertex="1">
          <mxGeometry x="170" y="130" width="110" height="70" as="geometry" />
        </mxCell>
        <mxCell id="T8hmmxzdGINafm_tk2lO-24" value="27 janvier 1756" style="whiteSpace=wrap;html=1;aspect=fixed;" parent="1" vertex="1">
          <mxGeometry x="160" y="640" width="80" height="80" as="geometry" />
        </mxCell>
        <mxCell id="T8hmmxzdGINafm_tk2lO-25" value="est né le" style="endArrow=classic;html=1;rounded=0;exitX=0;exitY=0.85;exitDx=0;exitDy=0;exitPerimeter=0;entryX=1;entryY=0.25;entryDx=0;entryDy=0;fillColor=#d5e8d4;strokeColor=#82b366;" parent="1" source="T8hmmxzdGINafm_tk2lO-6" target="T8hmmxzdGINafm_tk2lO-24" edge="1">
          <mxGeometry width="50" height="50" relative="1" as="geometry">
            <mxPoint x="230" y="520" as="sourcePoint" />
            <mxPoint x="280" y="470" as="targetPoint" />
          </mxGeometry>
        </mxCell>
        <mxCell id="T8hmmxzdGINafm_tk2lO-26" value="5 décembre 1791" style="whiteSpace=wrap;html=1;aspect=fixed;" parent="1" vertex="1">
          <mxGeometry x="230" y="340" width="80" height="80" as="geometry" />
        </mxCell>
        <mxCell id="T8hmmxzdGINafm_tk2lO-28" value="est mort le" style="endArrow=classic;html=1;rounded=0;exitX=0;exitY=0.25;exitDx=0;exitDy=0;entryX=1;entryY=0.25;entryDx=0;entryDy=0;fillColor=#d5e8d4;strokeColor=#82b366;" parent="1" source="T8hmmxzdGINafm_tk2lO-6" target="T8hmmxzdGINafm_tk2lO-26" edge="1">
          <mxGeometry width="50" height="50" relative="1" as="geometry">
            <mxPoint x="280" y="510" as="sourcePoint" />
            <mxPoint x="330" y="460" as="targetPoint" />
          </mxGeometry>
        </mxCell>
        <mxCell id="T8hmmxzdGINafm_tk2lO-29" value="est une" style="endArrow=classic;html=1;rounded=0;entryX=0.5;entryY=1;entryDx=0;entryDy=0;exitX=0.363;exitY=-0.012;exitDx=0;exitDy=0;exitPerimeter=0;fillColor=#f8cecc;strokeColor=#b85450;" parent="1" source="T8hmmxzdGINafm_tk2lO-24" target="T8hmmxzdGINafm_tk2lO-23" edge="1">
          <mxGeometry width="50" height="50" relative="1" as="geometry">
            <mxPoint x="290" y="160" as="sourcePoint" />
            <mxPoint x="340" y="110" as="targetPoint" />
          </mxGeometry>
        </mxCell>
        <mxCell id="T8hmmxzdGINafm_tk2lO-30" value="est une" style="endArrow=classic;html=1;rounded=0;exitX=0.5;exitY=0;exitDx=0;exitDy=0;fillColor=#f8cecc;strokeColor=#b85450;" parent="1" source="T8hmmxzdGINafm_tk2lO-26" target="T8hmmxzdGINafm_tk2lO-23" edge="1">
          <mxGeometry width="50" height="50" relative="1" as="geometry">
            <mxPoint x="320" y="160" as="sourcePoint" />
            <mxPoint x="370" y="110" as="targetPoint" />
          </mxGeometry>
        </mxCell>
        <mxCell id="T8hmmxzdGINafm_tk2lO-32" value="Claudio Abbado" style="whiteSpace=wrap;html=1;aspect=fixed;" parent="1" vertex="1">
          <mxGeometry x="30" y="630" width="80" height="80" as="geometry" />
        </mxCell>
        <mxCell id="T8hmmxzdGINafm_tk2lO-33" value="est né" style="endArrow=classic;html=1;rounded=0;exitX=1;exitY=0.75;exitDx=0;exitDy=0;entryX=0;entryY=0.425;entryDx=0;entryDy=0;entryPerimeter=0;fillColor=#d5e8d4;strokeColor=#82b366;" parent="1" source="T8hmmxzdGINafm_tk2lO-6" target="T8hmmxzdGINafm_tk2lO-21" edge="1">
          <mxGeometry width="50" height="50" relative="1" as="geometry">
            <mxPoint x="620" y="570" as="sourcePoint" />
            <mxPoint x="670" y="520" as="targetPoint" />
          </mxGeometry>
        </mxCell>
        <mxCell id="T8hmmxzdGINafm_tk2lO-34" value="est mort à" style="endArrow=classic;html=1;rounded=0;exitX=0.875;exitY=0.988;exitDx=0;exitDy=0;exitPerimeter=0;entryX=0.388;entryY=-0.025;entryDx=0;entryDy=0;entryPerimeter=0;fillColor=#d5e8d4;strokeColor=#82b366;" parent="1" source="T8hmmxzdGINafm_tk2lO-6" target="T8hmmxzdGINafm_tk2lO-22" edge="1">
          <mxGeometry width="50" height="50" relative="1" as="geometry">
            <mxPoint x="560" y="600" as="sourcePoint" />
            <mxPoint x="610" y="550" as="targetPoint" />
          </mxGeometry>
        </mxCell>
        <mxCell id="T8hmmxzdGINafm_tk2lO-35" value="est un" style="endArrow=classic;html=1;rounded=0;entryX=0.5;entryY=1;entryDx=0;entryDy=0;exitX=0.625;exitY=-0.025;exitDx=0;exitDy=0;fillColor=#f8cecc;strokeColor=#b85450;exitPerimeter=0;" parent="1" source="T8hmmxzdGINafm_tk2lO-21" target="T8hmmxzdGINafm_tk2lO-15" edge="1">
          <mxGeometry width="50" height="50" relative="1" as="geometry">
            <mxPoint x="780" y="260" as="sourcePoint" />
            <mxPoint x="830" y="210" as="targetPoint" />
          </mxGeometry>
        </mxCell>
        <mxCell id="T8hmmxzdGINafm_tk2lO-36" value="est un" style="endArrow=classic;html=1;rounded=0;exitX=0.75;exitY=0;exitDx=0;exitDy=0;entryX=0.209;entryY=0.957;entryDx=0;entryDy=0;entryPerimeter=0;fillColor=#f8cecc;strokeColor=#b85450;" parent="1" source="T8hmmxzdGINafm_tk2lO-22" target="T8hmmxzdGINafm_tk2lO-15" edge="1">
          <mxGeometry width="50" height="50" relative="1" as="geometry">
            <mxPoint x="760" y="620" as="sourcePoint" />
            <mxPoint x="810" y="570" as="targetPoint" />
          </mxGeometry>
        </mxCell>
        <mxCell id="T8hmmxzdGINafm_tk2lO-37" value="a réalisé" style="endArrow=classic;html=1;rounded=0;entryX=1;entryY=0.5;entryDx=0;entryDy=0;exitX=0.013;exitY=0.675;exitDx=0;exitDy=0;fillColor=#d5e8d4;strokeColor=#82b366;exitPerimeter=0;" parent="1" source="T8hmmxzdGINafm_tk2lO-6" target="T8hmmxzdGINafm_tk2lO-18" edge="1">
          <mxGeometry width="50" height="50" relative="1" as="geometry">
            <mxPoint x="240" y="610" as="sourcePoint" />
            <mxPoint x="290" y="560" as="targetPoint" />
          </mxGeometry>
        </mxCell>
        <mxCell id="T8hmmxzdGINafm_tk2lO-38" value="a réalisé" style="endArrow=classic;html=1;rounded=0;entryX=1;entryY=0.425;entryDx=0;entryDy=0;entryPerimeter=0;exitX=0;exitY=0.5;exitDx=0;exitDy=0;fillColor=#d5e8d4;strokeColor=#82b366;" parent="1" source="T8hmmxzdGINafm_tk2lO-6" target="T8hmmxzdGINafm_tk2lO-17" edge="1">
          <mxGeometry width="50" height="50" relative="1" as="geometry">
            <mxPoint x="-10" y="550" as="sourcePoint" />
            <mxPoint x="40" y="500" as="targetPoint" />
          </mxGeometry>
        </mxCell>
        <mxCell id="T8hmmxzdGINafm_tk2lO-39" value="Symphonie" style="ellipse;whiteSpace=wrap;html=1;" parent="1" vertex="1">
          <mxGeometry x="-170" y="50" width="110" height="70" as="geometry" />
        </mxCell>
        <mxCell id="T8hmmxzdGINafm_tk2lO-40" value="Opéra" style="ellipse;whiteSpace=wrap;html=1;" parent="1" vertex="1">
          <mxGeometry x="40" y="150" width="105" height="60" as="geometry" />
        </mxCell>
        <mxCell id="T8hmmxzdGINafm_tk2lO-41" value="est une" style="endArrow=classic;html=1;rounded=0;entryX=0;entryY=1;entryDx=0;entryDy=0;exitX=0.636;exitY=0;exitDx=0;exitDy=0;exitPerimeter=0;fillColor=#f8cecc;strokeColor=#b85450;" parent="1" source="T8hmmxzdGINafm_tk2lO-39" target="T8hmmxzdGINafm_tk2lO-16" edge="1">
          <mxGeometry width="50" height="50" relative="1" as="geometry">
            <mxPoint x="-10" y="100" as="sourcePoint" />
            <mxPoint x="40" y="50" as="targetPoint" />
          </mxGeometry>
        </mxCell>
        <mxCell id="T8hmmxzdGINafm_tk2lO-42" value="est une" style="endArrow=classic;html=1;rounded=0;entryX=0.5;entryY=1;entryDx=0;entryDy=0;exitX=0.733;exitY=0.017;exitDx=0;exitDy=0;exitPerimeter=0;fillColor=#f8cecc;strokeColor=#b85450;" parent="1" source="T8hmmxzdGINafm_tk2lO-40" target="T8hmmxzdGINafm_tk2lO-16" edge="1">
          <mxGeometry width="50" height="50" relative="1" as="geometry">
            <mxPoint x="20" y="120" as="sourcePoint" />
            <mxPoint x="70" y="70" as="targetPoint" />
          </mxGeometry>
        </mxCell>
        <mxCell id="T8hmmxzdGINafm_tk2lO-43" value="Londres" style="whiteSpace=wrap;html=1;aspect=fixed;" parent="1" vertex="1">
          <mxGeometry x="-110" y="640" width="80" height="80" as="geometry" />
        </mxCell>
        <mxCell id="T8hmmxzdGINafm_tk2lO-44" value="enregistré à" style="endArrow=classic;html=1;rounded=0;entryX=0.5;entryY=0;entryDx=0;entryDy=0;exitX=0.588;exitY=1;exitDx=0;exitDy=0;exitPerimeter=0;fillColor=#d5e8d4;strokeColor=#82b366;" parent="1" source="T8hmmxzdGINafm_tk2lO-18" target="T8hmmxzdGINafm_tk2lO-43" edge="1">
          <mxGeometry width="50" height="50" relative="1" as="geometry">
            <mxPoint x="-200" y="600" as="sourcePoint" />
            <mxPoint x="-150" y="550" as="targetPoint" />
          </mxGeometry>
        </mxCell>
        <mxCell id="T8hmmxzdGINafm_tk2lO-45" value="enregistré par" style="endArrow=classic;html=1;rounded=0;exitX=1;exitY=0.913;exitDx=0;exitDy=0;exitPerimeter=0;entryX=0.35;entryY=0;entryDx=0;entryDy=0;entryPerimeter=0;fillColor=#d5e8d4;strokeColor=#82b366;" parent="1" source="T8hmmxzdGINafm_tk2lO-18" target="T8hmmxzdGINafm_tk2lO-32" edge="1">
          <mxGeometry width="50" height="50" relative="1" as="geometry">
            <mxPoint x="-10" y="560" as="sourcePoint" />
            <mxPoint x="40" y="510" as="targetPoint" />
          </mxGeometry>
        </mxCell>
        <mxCell id="T8hmmxzdGINafm_tk2lO-46" value="est un" style="endArrow=classic;html=1;rounded=0;exitX=1.013;exitY=0.9;exitDx=0;exitDy=0;exitPerimeter=0;entryX=1;entryY=1;entryDx=0;entryDy=0;fillColor=#f8cecc;strokeColor=#b85450;" parent="1" source="T8hmmxzdGINafm_tk2lO-43" target="T8hmmxzdGINafm_tk2lO-15" edge="1">
          <mxGeometry width="50" height="50" relative="1" as="geometry">
            <mxPoint x="30" y="720" as="sourcePoint" />
            <mxPoint x="940" y="650" as="targetPoint" />
            <Array as="points">
              <mxPoint y="770" />
              <mxPoint x="920" y="660" />
            </Array>
          </mxGeometry>
        </mxCell>
        <mxCell id="T8hmmxzdGINafm_tk2lO-48" value="2" style="rounded=0;whiteSpace=wrap;html=1;" parent="1" vertex="1">
          <mxGeometry x="-60" y="350" width="80" height="30" as="geometry" />
        </mxCell>
        <mxCell id="T8hmmxzdGINafm_tk2lO-49" value="4" style="rounded=0;whiteSpace=wrap;html=1;" parent="1" vertex="1">
          <mxGeometry y="410" width="80" height="30" as="geometry" />
        </mxCell>
        <mxCell id="T8hmmxzdGINafm_tk2lO-50" value="3" style="rounded=0;whiteSpace=wrap;html=1;" parent="1" vertex="1">
          <mxGeometry x="-320" y="445" width="80" height="30" as="geometry" />
        </mxCell>
        <mxCell id="T8hmmxzdGINafm_tk2lO-51" value="1" style="rounded=0;whiteSpace=wrap;html=1;" parent="1" vertex="1">
          <mxGeometry x="-220" y="370" width="90" height="30" as="geometry" />
        </mxCell>
        <mxCell id="T8hmmxzdGINafm_tk2lO-52" value="a comme partie" style="endArrow=classic;html=1;rounded=0;entryX=0.75;entryY=1;entryDx=0;entryDy=0;exitX=0.088;exitY=-0.012;exitDx=0;exitDy=0;exitPerimeter=0;fillColor=#d5e8d4;strokeColor=#82b366;" parent="1" source="T8hmmxzdGINafm_tk2lO-18" target="T8hmmxzdGINafm_tk2lO-51" edge="1">
          <mxGeometry width="50" height="50" relative="1" as="geometry">
            <mxPoint x="-190" y="460" as="sourcePoint" />
            <mxPoint x="-140" y="410" as="targetPoint" />
          </mxGeometry>
        </mxCell>
        <mxCell id="T8hmmxzdGINafm_tk2lO-53" value="a comme partie" style="endArrow=classic;html=1;rounded=0;entryX=1;entryY=0.5;entryDx=0;entryDy=0;exitX=0;exitY=0.25;exitDx=0;exitDy=0;fillColor=#d5e8d4;strokeColor=#82b366;" parent="1" source="T8hmmxzdGINafm_tk2lO-18" target="T8hmmxzdGINafm_tk2lO-50" edge="1">
          <mxGeometry width="50" height="50" relative="1" as="geometry">
            <mxPoint x="-230" y="460" as="sourcePoint" />
            <mxPoint x="-180" y="410" as="targetPoint" />
          </mxGeometry>
        </mxCell>
        <mxCell id="T8hmmxzdGINafm_tk2lO-54" value="a comme partie" style="endArrow=classic;html=1;rounded=0;entryX=0.5;entryY=1;entryDx=0;entryDy=0;exitX=0.75;exitY=0;exitDx=0;exitDy=0;fillColor=#d5e8d4;strokeColor=#82b366;" parent="1" source="T8hmmxzdGINafm_tk2lO-18" target="T8hmmxzdGINafm_tk2lO-48" edge="1">
          <mxGeometry width="50" height="50" relative="1" as="geometry">
            <mxPoint x="-60" y="430" as="sourcePoint" />
            <mxPoint x="-10" y="380" as="targetPoint" />
          </mxGeometry>
        </mxCell>
        <mxCell id="T8hmmxzdGINafm_tk2lO-55" value="a comme partie" style="endArrow=classic;html=1;rounded=0;entryX=0.5;entryY=1;entryDx=0;entryDy=0;exitX=1;exitY=0.25;exitDx=0;exitDy=0;fillColor=#d5e8d4;strokeColor=#82b366;" parent="1" source="T8hmmxzdGINafm_tk2lO-18" target="T8hmmxzdGINafm_tk2lO-49" edge="1">
          <mxGeometry width="50" height="50" relative="1" as="geometry">
            <mxPoint x="-20" y="510" as="sourcePoint" />
            <mxPoint x="30" y="460" as="targetPoint" />
          </mxGeometry>
        </mxCell>
        <mxCell id="T8hmmxzdGINafm_tk2lO-56" value="est une" style="endArrow=classic;html=1;rounded=0;entryX=0;entryY=0.5;entryDx=0;entryDy=0;exitX=0.25;exitY=0;exitDx=0;exitDy=0;fillColor=#f8cecc;strokeColor=#b85450;" parent="1" source="T8hmmxzdGINafm_tk2lO-51" target="T8hmmxzdGINafm_tk2lO-16" edge="1">
          <mxGeometry width="50" height="50" relative="1" as="geometry">
            <mxPoint x="-20" as="sourcePoint" />
            <mxPoint x="30" y="-50" as="targetPoint" />
            <Array as="points">
              <mxPoint x="-210" y="-25" />
            </Array>
          </mxGeometry>
        </mxCell>
        <mxCell id="T8hmmxzdGINafm_tk2lO-58" value="est une" style="endArrow=classic;html=1;rounded=0;exitX=0.25;exitY=0;exitDx=0;exitDy=0;entryX=0.118;entryY=0.243;entryDx=0;entryDy=0;entryPerimeter=0;fillColor=#f8cecc;strokeColor=#b85450;" parent="1" source="T8hmmxzdGINafm_tk2lO-50" target="T8hmmxzdGINafm_tk2lO-16" edge="1">
          <mxGeometry width="50" height="50" relative="1" as="geometry">
            <mxPoint x="-290" y="350" as="sourcePoint" />
            <mxPoint x="-240" y="300" as="targetPoint" />
            <Array as="points">
              <mxPoint x="-260" y="-40" />
            </Array>
          </mxGeometry>
        </mxCell>
        <mxCell id="T8hmmxzdGINafm_tk2lO-59" value="est une" style="endArrow=classic;html=1;rounded=0;entryX=0.209;entryY=0.943;entryDx=0;entryDy=0;entryPerimeter=0;exitX=0.5;exitY=0;exitDx=0;exitDy=0;fillColor=#f8cecc;strokeColor=#b85450;" parent="1" source="T8hmmxzdGINafm_tk2lO-48" target="T8hmmxzdGINafm_tk2lO-16" edge="1">
          <mxGeometry width="50" height="50" relative="1" as="geometry">
            <mxPoint x="-50" y="200" as="sourcePoint" />
            <mxPoint y="150" as="targetPoint" />
            <Array as="points">
              <mxPoint x="-40" y="130" />
            </Array>
          </mxGeometry>
        </mxCell>
        <mxCell id="T8hmmxzdGINafm_tk2lO-60" value="est une" style="endArrow=classic;html=1;rounded=0;entryX=0.3;entryY=1.014;entryDx=0;entryDy=0;entryPerimeter=0;exitX=0.65;exitY=-0.033;exitDx=0;exitDy=0;exitPerimeter=0;fillColor=#f8cecc;strokeColor=#b85450;" parent="1" source="T8hmmxzdGINafm_tk2lO-49" target="T8hmmxzdGINafm_tk2lO-16" edge="1">
          <mxGeometry width="50" height="50" relative="1" as="geometry">
            <mxPoint x="-10" y="170" as="sourcePoint" />
            <mxPoint x="40" y="120" as="targetPoint" />
            <Array as="points">
              <mxPoint y="180" />
            </Array>
          </mxGeometry>
        </mxCell>
        <mxCell id="T8hmmxzdGINafm_tk2lO-62" value="est une" style="endArrow=classic;html=1;rounded=0;exitX=0.5;exitY=0;exitDx=0;exitDy=0;entryX=0.042;entryY=0.366;entryDx=0;entryDy=0;entryPerimeter=0;fillColor=#f8cecc;strokeColor=#b85450;" parent="1" source="T8hmmxzdGINafm_tk2lO-32" target="T8hmmxzdGINafm_tk2lO-1" edge="1">
          <mxGeometry width="50" height="50" relative="1" as="geometry">
            <mxPoint x="80" y="520" as="sourcePoint" />
            <mxPoint x="130" y="470" as="targetPoint" />
            <Array as="points">
              <mxPoint x="310" y="200" />
            </Array>
          </mxGeometry>
        </mxCell>
      </root>
    </mxGraphModel>
  </diagram>
</mxfile>
